PathFileType	4	(X/Y/Z)	C:/Users/opensim2020/Desktop/walking_exp_matlab/subject01_walking13_straight_04.trc	
DataRate	CameraRate	NumFrames	NumMarkers	Units	OrigDataRate	OrigDataStartFrame	OrigNumFrames	
100.00	100.00	8	42	mm	100.00	2159	135	
Frame#	Time	LFHD			RFHD			LBHD			RBHD			C7			T10			CLAV			STRN			RBAK			LSHO			LUPA			LELB			LFRM			LWRA			LWRB			LFIN			RSHO			RUPA			RELB			RFRM			RWRA			RWRB			RFIN			LASI			RASI			LPSI			RPSI			LTHI			LKNE			LTIB			LANK			LHEE			LTOE			RTHI			RKNE			RTIB			RANK			RHEE			RTOE			*39			*40			*41			
		X1	Y1	Z1	X2	Y2	Z2	X3	Y3	Z3	X4	Y4	Z4	X5	Y5	Z5	X6	Y6	Z6	X7	Y7	Z7	X8	Y8	Z8	X9	Y9	Z9	X10	Y10	Z10	X11	Y11	Z11	X12	Y12	Z12	X13	Y13	Z13	X14	Y14	Z14	X15	Y15	Z15	X16	Y16	Z16	X17	Y17	Z17	X18	Y18	Z18	X19	Y19	Z19	X20	Y20	Z20	X21	Y21	Z21	X22	Y22	Z22	X23	Y23	Z23	X24	Y24	Z24	X25	Y25	Z25	X26	Y26	Z26	X27	Y27	Z27	X28	Y28	Z28	X29	Y29	Z29	X30	Y30	Z30	X31	Y31	Z31	X32	Y32	Z32	X33	Y33	Z33	X34	Y34	Z34	X35	Y35	Z35	X36	Y36	Z36	X37	Y37	Z37	X38	Y38	Z38	X39	Y39	Z39	X40	Y40	Z40	X41	Y41	Z41	X42	Y42	Z42	

51	0.500	1547.49390	337.13150	1654.39832	1435.26367	324.35196	1662.13623	1539.47961	455.87006	1617.40442	1419.50806	445.28159	1624.35449	1491.97339	505.07477	1424.55396	1470.56238	548.75183	1132.00610	1483.47290	362.64716	1354.10889	1487.62842	322.41135	1198.97864	1411.35291	565.70331	1230.64478	1646.20105	417.63788	1383.54126	1742.82483	423.84070	1208.61060	1766.54504	400.86487	1057.93176	1778.22900	290.56476	1012.28198	1745.49756	156.17079	1003.85547	1771.26672	182.78926	957.28528	1781.40686	100.94632	956.08258	1334.56848	431.74585	1384.86182	1235.33167	531.85168	1205.17139	1222.45959	557.39087	1086.44714	1183.70654	568.69287	970.03223	1191.86487	529.38086	833.50983	1155.67859	572.64807	849.64832	1143.45508	554.78766	769.44537	1588.40430	386.69473	923.87079	1371.28540	360.73996	927.51013	1509.06604	565.23083	945.11780	1366.31201	543.78937	938.37964	1625.55603	500.34421	602.21082	1607.68433	547.38074	473.14706	1605.10156	647.55554	310.49707	1546.64380	725.53552	105.49892	1490.40796	771.12939	90.68239	1559.94458	593.23651	34.43603	1300.92114	331.54651	601.92499	1337.79602	261.97537	464.70602	1325.16028	255.31197	291.53342	1369.90039	200.62299	87.73953	1421.44397	231.27087	34.06324	1370.79175	57.40639	95.61694	1458.88037	333.65765	1695.65063	-3101.86328	1973.18005	1023.47815	-3140.72656	2012.48218	1022.06696 
52	0.510	1545.96094	324.28329	1653.22461	1433.83936	311.39948	1660.94287	1538.02393	442.95993	1616.10864	1417.99695	432.27005	1622.93945	1490.44006	491.98514	1423.11475	1469.50867	534.98621	1130.43042	1482.30176	349.32437	1352.94458	1487.14954	308.78961	1197.91382	1410.11145	552.15063	1228.92725	1644.86230	404.80182	1382.77100	1742.18274	410.25699	1208.35498	1766.91577	386.52939	1058.02710	1778.37939	275.42441	1014.06049	1745.28027	141.14224	1007.83313	1771.31226	166.81992	960.91711	1781.30066	85.05927	961.38928	1333.30566	418.02002	1383.34644	1234.60132	519.03094	1203.78650	1221.95630	545.12354	1085.17041	1183.23718	557.15601	968.81268	1191.04163	518.45740	832.19373	1155.30457	561.94244	848.54095	1142.73999	544.72638	768.16095	1589.34753	373.63934	922.76642	1372.27649	345.88101	925.55127	1507.95752	551.36017	944.60797	1365.15576	528.51581	937.18848	1626.55664	490.69501	601.91980	1608.43628	538.82782	473.12964	1605.74280	641.83136	312.33698	1547.56238	723.77692	108.77366	1491.22070	769.42529	95.14187	1560.06042	592.87402	34.57759	1299.79004	319.79233	599.66272	1338.42163	248.42932	464.00235	1325.25891	236.77010	291.21915	1369.97534	177.47391	88.72948	1420.90662	207.38063	34.02685	1372.63574	33.91791	99.13222	1457.45117	320.83810	1694.37146	-3101.81860	1973.17419	1023.43365	-3140.61084	2012.59900	1022.11761 
53	0.520	1544.47046	311.38397	1652.14661	1432.26404	298.44080	1659.76221	1536.38428	430.00278	1614.87585	1416.40503	419.25723	1621.63855	1488.72437	478.79614	1421.72998	1468.45923	521.06445	1128.88062	1481.08240	335.87686	1351.87061	1486.48962	295.03839	1196.88770	1408.67407	538.53088	1227.36755	1643.45374	391.89645	1382.07837	1741.33276	396.85541	1208.04346	1767.20813	372.31232	1058.12976	1778.38416	260.70718	1015.52753	1744.91736	126.51894	1011.17352	1771.28491	151.44333	964.05231	1780.99731	69.62997	965.80829	1331.67871	404.37250	1381.80286	1233.70581	506.09143	1202.41748	1221.17712	532.55347	1083.88428	1182.78357	545.20447	967.52350	1190.28308	506.98920	830.72424	1155.09705	550.66681	847.31555	1142.20007	533.84540	766.88934	1590.08533	360.30688	921.66736	1373.22632	330.96921	923.55231	1506.96399	537.32190	943.95911	1364.19434	513.59125	936.15930	1627.54980	480.18527	601.53534	1609.28833	529.31866	473.07382	1606.47351	635.69965	314.25244	1548.30811	721.37946	112.11509	1492.24146	767.38806	100.18964	1560.70886	593.33636	34.82539	1299.54309	306.39273	598.13922	1338.93860	234.76927	463.56851	1325.63135	219.63354	290.67355	1370.29639	157.68155	88.78246	1420.87659	187.17282	33.85422	1374.92664	13.73367	100.60133	1455.78308	308.07898	1693.21179	-3102.00146	1973.07568	1023.33069	-3140.65747	2012.54163	1022.17059 
54	0.530	1542.75781	298.46051	1651.11206	1430.57202	285.40164	1658.64709	1534.65320	417.02597	1613.66553	1414.62341	406.18033	1620.34790	1486.91553	465.54813	1420.38831	1467.39270	507.01279	1127.35742	1479.71997	322.34497	1350.92468	1485.69202	281.25879	1195.96887	1407.12378	524.85980	1225.88245	1641.91382	378.98737	1381.45459	1740.42896	383.60739	1207.74963	1767.27490	358.49982	1058.26221	1778.26367	246.42874	1016.79987	1744.48254	112.31522	1013.95532	1770.66162	136.32866	966.13110	1780.62183	54.76268	969.51013	1330.13708	390.58078	1380.36902	1232.76489	492.81165	1200.92969	1220.76343	519.80103	1082.35132	1182.40625	532.97992	966.15857	1189.56995	494.89359	829.29852	1154.94287	539.06012	845.86694	1141.78027	522.33459	765.47705	1590.50415	346.51926	920.59534	1374.03650	315.97821	921.91400	1506.11072	523.03033	943.08649	1363.39136	498.66611	935.13129	1628.43066	468.89163	601.04401	1610.10925	519.45758	473.13147	1607.40210	628.84918	316.38956	1549.42261	718.94794	116.08997	1493.07324	764.77063	105.38548	1560.89355	593.15045	34.85558	1300.55481	291.12769	597.73883	1339.31079	220.60880	462.64133	1326.17505	204.04050	289.77902	1370.80066	141.10004	88.26182	1421.01672	170.74005	32.99153	1377.41309	-3.23910	99.97241	1454.05652	295.12543	1692.09607	-3101.87744	1973.20789	1023.41370	-3140.75879	2012.56201	1022.13336 
55	0.540	1541.00049	285.53214	1650.14600	1428.84290	272.39780	1657.60242	1532.65784	403.99283	1612.49951	1412.69788	393.07162	1619.15808	1484.92297	452.15320	1419.02649	1466.34363	492.86557	1125.87183	1478.23535	308.76089	1349.98364	1484.76318	267.31247	1195.16064	1405.58557	511.03821	1224.40381	1640.24817	365.85107	1380.81787	1739.37817	370.57806	1207.50073	1767.09998	344.93002	1058.28320	1777.99817	232.52716	1017.79791	1743.85608	98.53107	1016.04785	1770.36768	121.98694	968.21765	1780.17993	40.51483	972.47717	1328.27161	376.79413	1378.91431	1231.55933	479.33057	1199.44116	1220.15405	506.88196	1080.91040	1181.98169	520.35419	964.63538	1188.92200	482.19327	827.86212	1155.08899	527.29974	844.52704	1141.32239	509.99686	764.02026	1590.64111	332.26971	919.54364	1374.58411	300.88284	920.56689	1505.40869	508.56058	941.92224	1362.81555	483.67712	933.97668	1629.26709	456.91470	600.47272	1611.05554	508.48300	472.96951	1608.29736	621.43384	318.53107	1550.40710	715.77008	119.85736	1494.37817	761.86707	111.03490	1561.01038	592.72473	34.86699	1302.10754	274.54761	597.61719	1339.49805	206.12212	461.42111	1326.87170	189.92984	288.43036	1371.63171	127.66612	86.25140	1421.55945	157.87334	31.25758	1379.79712	-16.94721	97.57996	1452.28088	282.17007	1691.02417	-3102.21655	1972.96252	1023.94568	-3140.83008	2012.45874	1022.00946 
56	0.550	1539.06787	272.61877	1649.14636	1426.91443	259.30502	1656.57300	1530.65601	391.01700	1611.38184	1410.62573	379.86957	1617.91345	1482.85535	438.60934	1417.69263	1465.30591	478.55191	1124.42700	1476.48425	294.96732	1348.99707	1483.73694	253.15392	1194.41907	1404.14929	497.04214	1222.87390	1638.44031	352.60205	1380.20166	1738.15369	357.64447	1207.24976	1766.73743	331.68750	1058.26172	1777.55408	219.00623	1018.52936	1743.16919	85.23097	1017.57104	1769.96716	108.25583	969.71570	1779.63513	26.80193	974.63647	1326.57288	362.93225	1377.47778	1230.35889	465.72449	1197.91113	1219.58289	493.79312	1079.36560	1181.63904	507.41748	963.01093	1188.37817	468.98624	826.36401	1154.62073	514.04590	842.80536	1140.79895	497.12061	762.49658	1590.63647	317.67230	918.48889	1374.87842	285.44406	919.71924	1504.88025	493.88550	940.59509	1362.51770	468.89948	932.80627	1629.87341	444.30756	599.99188	1612.02954	496.77921	472.68655	1609.44409	613.12891	320.74533	1552.07471	712.57166	124.52544	1495.87634	758.47278	117.22795	1560.97534	592.24286	34.59160	1303.96362	257.14511	597.64734	1339.95178	191.26256	459.82709	1327.69897	177.16339	286.35971	1372.63269	117.43704	83.63418	1422.34180	148.24902	28.90782	1382.28503	-27.47776	93.65845	1450.36743	269.09692	1690.01794	-3101.91968	1973.18579	1023.40497	-3140.61279	2012.49463	1021.93427 
57	0.560	1537.09009	259.69708	1648.22986	1424.95947	246.17070	1655.59155	1528.44714	378.04855	1610.24524	1408.52307	366.67856	1616.77087	1480.78760	425.06259	1416.39038	1464.34082	464.07327	1122.94788	1474.72278	281.16537	1348.01709	1482.62830	238.96230	1193.73987	1402.76538	482.86786	1221.24854	1636.46313	339.17825	1379.58594	1736.72180	344.86880	1206.98169	1766.19739	318.79742	1058.25098	1776.98267	205.97986	1019.01868	1742.35925	72.24878	1018.46979	1769.39868	95.07591	970.62115	1779.03479	13.67035	975.97711	1324.63879	349.14359	1376.14355	1228.99780	451.89355	1196.33850	1218.84497	480.42206	1077.80847	1181.28162	494.12497	961.41168	1187.91455	455.26544	824.82416	1154.74402	500.73166	841.15710	1140.59241	483.51498	761.03223	1590.49316	302.71548	917.36035	1374.84302	269.88068	918.96478	1504.49182	478.95255	939.20087	1362.53333	453.85080	931.66132	1630.66675	431.13278	599.54797	1613.21667	484.28543	472.34491	1610.68921	604.02557	322.90176	1553.69958	708.47693	128.94020	1497.55420	754.46381	123.68675	1561.20947	591.97498	34.60634	1305.93225	239.41989	597.75464	1340.38818	176.31363	457.86301	1328.71045	165.57359	283.74835	1374.03918	109.38165	80.18659	1423.40112	141.99518	27.20200	1384.14478	-35.21087	88.32002	1448.38562	256.06912	1689.09851	-3101.84985	1973.10608	1023.59863	-3140.60889	2012.44067	1021.94409 
58	0.570	1534.94092	246.78868	1647.31262	1422.79871	233.10028	1654.60046	1526.08740	365.09250	1609.10876	1406.15381	353.48398	1615.54150	1478.64758	411.49680	1415.04199	1463.37866	449.43552	1121.36389	1472.88843	267.27386	1347.07922	1481.44238	224.61388	1193.10217	1401.39502	468.48773	1219.52710	1634.37781	325.71600	1378.92798	1735.19397	332.09763	1206.74927	1765.58545	306.30560	1058.26196	1776.30762	193.38051	1019.28503	1741.53564	59.83711	1018.95660	1768.76233	82.35328	970.98010	1778.36047	1.01812	976.48645	1322.64856	335.17126	1374.73401	1227.68555	437.95468	1194.73694	1218.32434	466.73398	1076.07373	1181.09656	480.52570	959.66345	1187.50378	440.99088	823.19257	1154.77234	486.69958	839.27032	1140.55554	469.53275	759.25128	1590.88354	288.08923	916.18671	1374.35046	254.03745	918.37177	1504.28845	463.64590	937.77979	1362.52979	438.49988	930.24615	1631.27527	416.94403	598.73126	1614.65613	470.90173	471.85587	1612.06921	593.99170	324.92560	1555.77234	704.05817	134.11517	1499.56396	749.67133	130.78802	1561.51404	591.65002	34.67953	1308.08313	221.66975	597.52954	1341.09412	161.74207	455.87604	1330.11169	155.02119	280.74747	1375.76111	103.56332	76.52036	1424.46484	138.81706	26.74798	1385.77185	-41.02880	81.34656	1446.17590	243.10507	1688.10156	-3102.02734	1973.06519	1023.92889	-3140.72095	2012.47571	1022.00311 
